<svg width="22" height="20" viewBox="0 0 22 20" fill="none" xmlns="http://www.w3.org/2000/svg">
<path fill-rule="evenodd" clip-rule="evenodd" d="M11.0122 3.57193L9.92522 2.48494C7.77734 0.337053 4.29493 0.337053 2.14705 2.48494C-0.000838161 4.63282 -0.000838041 8.11523 2.14705 10.2631L10.9859 19.1019L10.9877 19.1001L11.014 19.1265L19.8528 10.2876C22.0007 8.13976 22.0007 4.65736 19.8528 2.50947C17.705 0.361589 14.2226 0.361589 12.0747 2.50947L11.0122 3.57193ZM10.9877 16.2717L15.9239 11.3355L17.3747 9.93445L17.3762 9.93589L18.4386 8.87343C19.8055 7.5066 19.8055 5.29052 18.4386 3.92369C17.0718 2.55685 14.8557 2.55685 13.4889 3.92369L11.0133 6.39928L11.006 6.39204L11.005 6.39312L8.51101 3.89915C7.14417 2.53231 4.92809 2.53231 3.56126 3.89915C2.19442 5.26598 2.19442 7.48206 3.56126 8.8489L6.10068 11.3883L6.10248 11.3865L10.9877 16.2717Z" fill="#0F0F0F"/>
</svg>
